<svg xmlns="http://www.w3.org/2000/svg" viewBox="0 0 210.75 285.98"><title>Ativo 247H</title><g id="Camada_2" data-name="Camada 2"><g id="Camada_1-2" data-name="Camada 1"><path fill="#ffffff" d="M209.69,55.67,197,68.93l-1.54-.82c1.63-7.55,2.74-15.26,5-22.61,2.52-8.12,3.94-16.11,2.05-24.47A39.82,39.82,0,0,0,190.61,0c4.19,12.19,8.74,24.18,3,36.82l-1.69.47c-2-2.93-4-5.82-6-8.8C178.68,17.3,169.22,9,156,5.81a33.91,33.91,0,0,0-5.07-.47l-.45,1.23c8.66,4.66,17.86,8.73,22.65,19.33l-33.27-6.33-.4,1.63a58,58,0,0,0,5.76,2.94c7.9,3,15.73,6.26,23.79,8.77,16.15,5,19.72,26.26,13.72,37.19-3.55,6.47-8.93,10.87-17.2,12.73,1.77-11,3.85-21.2.38-31.48a18.21,18.21,0,0,0-1.89,5c-1.53,5.74-2.61,11.64-4.68,17.17C153.52,89,142.06,97.49,126.94,97.68c3.72-12.18,5.44-24.36,1.15-37.45-.82,1.26-1.22,1.61-1.29,2a38.51,38.51,0,0,0-.51,4.19c-.92,15.28-7.1,28.12-18.17,38.57-5.9,5.57-10.68,5.32-16.25-.59-4.93-5.23-7.18-11.72-7.95-18.7-.53-4.83-.6-9.72-.88-14.58a7.9,7.9,0,0,0-3,4.07c-4.22,12.31-3.57,24.3,2.32,36,2.57,5.11,1.73,8-3.09,11a54.18,54.18,0,0,1-6.11,2.89c2.74-4.13,1.06-6.34-2.52-7.6a27.63,27.63,0,0,1-12-8.57c-8.09-9.36-15.24-18.87-13.64-32.23,0-.18-.38-.4-1.22-1.24-5.58,10.77-3.71,21,1.25,32.12C35,103.47,29.93,96.87,28.37,87.57c-1.65-9.81-1.68-19.09,8.17-25.42,7-4.48,13.62-9.5,20.42-14.26,1.85-1.3,3.74-2.53,5.62-3.79L60.87,42,32.77,54.86,31.5,53.63c3.91-6.08,7.22-12.68,11.91-18.1S54.08,26,59.5,21.32A40.41,40.41,0,0,0,34.24,35.21C28,42.62,23.33,51.26,17.85,59.55c-8.07-9.87-5-20.22,0-30.82a13.21,13.21,0,0,0-4.21,3.12c-8.7,9.76-8.47,26.29.34,37.32,1.3,1.63,2.8,3.65,2.9,5.56.21,4-.45,8.08-.77,12.39-5.36-1.52-8.76-4.89-9.94-9.87-1.11-4.68-1.31-9.57-2-14.79C-3,72.61-.72,87.82,9.26,94.78c5.91,4.13,11.78,8,16.3,13.8a26.34,26.34,0,0,0,8.93,6.77c6.83,3.46,14,6.34,20.93,9.5,2.72,1.23,5.39,2.59,9.37,4.51-3.08,1.42-4.83,2-6.31,3-1.19.79-3,2.21-2.89,3.12.55,4.16-2.47,4.59-5.07,5.42-3,.95-6.16,1.35-9,2.54a8,8,0,0,0-4.12,3.82,19.44,19.44,0,0,0-1.24,8c.07,1.27,1.9,3.36,3.09,3.48,4.31.42,8.68.17,13.36.17v-6.53l-1.32.77c-1.28-1.34-2.8-2.54-3.64-4.11-.19-.35,1.82-2.62,3.07-2.9,7.22-1.67,14.54-3,21.78-4.55.87-.19,1.58-1.42,2.24-2.27,5.92-7.68,10.57-8.16,18.72-2.51a6.58,6.58,0,0,0,5.74.12c1.22-.65,2.24-3.29,2-4.81-.72-4.18.07-7.81,3.54-10A61.46,61.46,0,0,1,118,115.51c18.58-6.1,37.69-10.64,55.13-19.92,15.3-8.13,28.18-18.73,36-34.62a40,40,0,0,0,1.66-4.79Z"/><path fill="#ffffff" d="M135.08,128.74a133.79,133.79,0,0,0-14.49,1.47c-19.31,3.63-26.11,15.23-23.75,33.92,1.24,9.81-2.2,13.19-11.93,11-1.52-.34-3-.71-4.54-1.17-8.51-2.66-17-5.31-25.5-8.09-.8-.26-1.33-1.37-2-2.12s-.93-1.74-1.57-1.9c-4.45-1.11-8.91-1.62-13,1.16,1.19,6.93,1.76,7.41,8.31,7.33a10.2,10.2,0,0,1,2.33.18c23.63,5.27,41.62,17.7,51.07,40.71,4.85,11.8,5.42,23.8.65,36.14-2.13-15.64-12.94-24.45-24.6-32.75-7.8-5.55-15.87-11.12-15.63-23a56.37,56.37,0,0,0-7.38,13.62c-1.58,4.51-7.45,16.91,1.79,34.94C75,268.65,93,262.5,101,286c3.56-5.69,6.3-10.82,9.73-15.43,14.49-19.45,18.22-41.17,14.17-64.63-2.86-16.56-9.28-31.81-17.06-46.58-1.33-2.53-2.3-5.27-3.94-9.1,2.67.54,3.94,1,5.22,1,3.81,0,8,.83,11.37-.44,8.53-3.2,13.6-10.29,17.36-18.3C139.07,129.89,137.79,128.53,135.08,128.74ZM63.89,239.68A21.72,21.72,0,0,1,61.53,237a29.87,29.87,0,0,1-4.07-12.67,38.78,38.78,0,0,1,.36-8,39.82,39.82,0,0,1,2.45-9.45c1.17,7.66,6.08,10.52,10.85,13.39,6.68,4,10.67,7.31,13.69,12,1.72,2.69,7.3,28,7.74,29.68C91.95,262,68.55,245.33,63.89,239.68Zm41.48-98.84s8.63-10.25,26.38-10.62C131.76,130.22,115.74,133.34,105.38,140.84Z"/></g></g></svg>